<?xml version="1.0" standalone="no"?>
<svg viewBox="200 800 200 200" xmlns="http://www.w3.org/2000/svg">
  <path fill="#283574" d="M43.2,-77.2C54.5,-68.4,61,-53.7,67,-39.8C73,-26,78.4,-13,79.5,0.6C80.6,14.3,77.4,28.5,70.1,40.1C62.8,51.7,51.5,60.6,39.1,69.4C26.8,78.2,13.4,86.8,-0.9,88.3C-15.2,89.9,-30.4,84.5,-42.3,75.4C-54.1,66.4,-62.6,53.7,-71.7,40.6C-80.8,27.4,-90.3,13.7,-89.4,0.5C-88.5,-12.6,-77.1,-25.3,-68.5,-39.2C-59.9,-53.1,-54.1,-68.3,-43.1,-77.3C-32.2,-86.3,-16.1,-89.1,0,-89C16,-88.9,32,-86,43.2,-77.2Z" transform="translate(100 100)" />
</svg>
