<?xml version="1.0" encoding="utf-8" ?>
<svg xmlns="http://www.w3.org/2000/svg" xmlns:xlink="http://www.w3.org/1999/xlink" width="65" height="65">
	<path fill="#003049" transform="scale(0.126953 0.126953)" d="M15.4367 386.605L31.89 386.483C35.4298 386.484 39.3545 386.156 42.8546 386.601C49.9719 387.506 54.1991 399.527 41.5187 401.115L23.7559 401.152C18.9635 401.153 7.71857 401.954 7.19673 394.293C6.92118 390.248 11.8272 386.819 15.4367 386.605Z"/>
	<path fill="#003049" transform="scale(0.126953 0.126953)" d="M468.059 345.626C474.005 345.223 480.098 345.501 486.064 345.498C494.935 345.494 503.65 342.547 506.379 352.946C505.363 356.37 503.615 358.671 499.896 359.447L472.09 359.483C460.506 359.464 458.665 347.009 468.059 345.626Z"/>
	<path fill="#003049" transform="scale(0.126953 0.126953)" d="M12.9637 345.624C20.7033 345.142 36.7165 344.837 44.316 345.667C51.5183 346.453 51.257 358.833 43.2025 359.877L21.9384 359.552C18.8848 359.562 12.4879 360.802 9.9723 358.671L9.75 358.478C4.18461 353.88 5.83368 346.529 12.9637 345.624Z"/>
	<path fill="#003049" transform="scale(0.126953 0.126953)" d="M471.691 386.399L486.906 386.439C490.445 386.422 495.059 385.852 498.428 386.794C505.256 388.703 507.847 396.595 501.339 399.956L501.081 400.083C498.975 401.143 496.872 401.07 494.563 401.136L477.45 401.132C474.496 401.126 469.546 401.71 466.939 400.25L466.247 399.862C459.201 395.876 461.27 388.17 468.201 386.752L471.691 386.399Z"/>
	<path fill="#003049" transform="scale(0.126953 0.126953)" d="M41.2854 437.282C49.091 436.531 52.1265 442.921 47.5811 448.578C42.9039 454.399 37.0166 459.534 31.6526 464.735L25.6182 470.577C23.8283 472.298 22.2604 473.901 20.0419 475.061C16.2054 476.216 11.823 471.561 11.7473 467.931L11.7486 467.625C11.7397 462.275 22.0951 454.473 25.6416 451.001L33.289 443.58C35.8973 441.067 38.0379 438.921 41.2854 437.282Z"/>
	<path fill="#003049" transform="scale(0.126953 0.126953)" d="M468.943 436.817C471.992 436.619 476.074 441.455 478.036 443.302L488.032 452.883C491.549 456.326 495.493 459.689 498.606 463.496C502.84 468.675 499.983 474.493 493.716 475.344C489.805 474.967 488.165 472.872 485.601 470.097L481.371 465.779C477.477 461.878 462.861 449.123 461.641 444.279C460.941 441.499 464.831 437.768 467.222 437.23L468.943 436.817Z"/>
	<path fill="#003049" transform="scale(0.126953 0.126953)" d="M493.119 272.287C500.466 271.96 503.016 279.845 497.367 285.686C493.928 289.243 489.967 292.329 486.407 295.774C481.831 300.202 475.493 308.76 469.414 310.809L468.793 310.796C463.249 310.516 459.006 303.866 464.073 298.127C467.386 294.375 471.608 291.219 475.2 287.701L483.125 279.78C486.15 276.662 488.637 273.189 493.119 272.287Z"/>
	<path fill="#003049" transform="scale(0.126953 0.126953)" d="M17.8632 272.28C22.8255 272.453 24.874 275.831 28.1408 279.068L41.4309 292.253C43.6485 294.407 46.1115 296.362 48.2584 298.57C52.2773 302.703 48.7926 309.161 44.0414 310.758C38.1049 311.023 33.7826 304.231 29.9585 300.56C25.4344 296.218 0.0309637 276.116 17.8632 272.28Z"/>
	<path fill="#003049" transform="scale(0.126953 0.126953)" d="M41.449 8.09819L466.935 8.26573C469.853 8.267 473.556 7.8382 476.397 8.49039C489.259 11.4426 503.72 45.3598 500.396 59.2769C496.976 73.5955 487.281 86.279 479.375 98.4346L395.199 228.14C393.288 231.018 377.733 253.375 377.903 255.188C377.929 255.467 387.216 268.058 388.195 269.534C420.057 317.562 420.473 380.794 392.236 430.626L379.212 449.875C346.549 490.214 296.651 515.388 244.216 511.255C239.207 510.86 234.191 509.888 229.25 509.006C152.951 495.379 99.3332 427.238 99.6198 350.913C99.7457 317.369 110.503 282.6 131.951 256.491L91.1579 192.587L22.9137 85.5818C7.59243 61.7895 6.72282 51.8296 20.0604 27.789C22.0556 24.1927 23.911 20.6452 26.2519 17.25L27.0913 16.0913C30.7628 11.502 35.6022 8.70844 41.449 8.09819ZM189.755 90.8508C191.927 92.8469 195.093 97.569 195.989 100.439C189.264 104.551 191.037 111.278 194.423 116.81L205.67 133.831C208.588 138.335 220.069 159.743 226.065 158.574C227.851 159.849 228.799 161.943 229.97 163.75L248.962 190.474C250.679 192.536 252.33 194.258 253.661 196.601L254.014 196.875C254.866 196.546 257.373 190.969 258.034 189.889L296.976 126.373C301.705 118.673 306.126 110.604 311.338 103.233C304.866 103.712 298.37 103.589 291.885 103.596L237.904 103.632C233.233 103.632 214.977 105.545 213.767 99.0586L213.539 97.542C212.815 88.2334 222.139 89.6881 227.829 89.6963L320.754 89.5478L363.566 21.7695C351.211 23.0282 338.405 22.3917 325.985 22.3958L172.5 22.4034C165.997 22.3957 159.608 22.4241 153.127 21.8251C160.472 31.1969 166.273 42.156 172.425 52.3523C178.034 61.6491 184.262 70.9429 189.131 80.643C190.781 83.9318 192.016 87.5402 189.755 90.8508ZM390.364 58.0954L298.711 204.116C312.659 207.076 327.506 213.915 339.39 221.832C340.114 220.56 341.22 219.384 342.143 218.244L360.72 191L443.349 63.125C444.218 61.9696 445.293 60.8699 445.837 59.5196L445.218 58.8341L401.8 59.3432C398.157 59.3162 393.838 59.3951 390.364 58.0954ZM70.8161 59.2097C70.4773 59.7544 70.153 60.2474 69.7377 60.7394C70.4351 62.4657 71.7705 63.9761 72.8487 65.4874L134.234 161.414L171.556 221.249C181.699 213.587 201.586 206.871 213.458 202.831L126.539 60.3233C123.225 60.5956 119.468 59.5809 116.1 59.4226L73.7341 58.9266C72.8161 58.9271 71.6959 58.7882 70.8161 59.2097Z"/>
	<path fill="#FCBF49" transform="scale(0.126953 0.126953)" d="M390.364 58.3233L411.98 24.4081C412.456 23.634 412.85 22.6794 413.626 22.1917L467.025 22.2604L452.51 42.2713C449.597 46.4861 444.171 52.8018 445.173 58.3657L445.218 58.5938L401.8 59.3432C398.157 59.3162 393.838 59.3951 390.364 58.3233Z"/>
	<path fill="#FCBF49" transform="scale(0.126953 0.126953)" d="M70.8161 59.0675L70.7518 58.8187C69.3819 51.4489 58.7071 37.4738 54.1721 31.6213L46.2369 21.5675C50.8135 21.9772 55.7769 22.2833 60.3641 22.339L101.906 22.3792C105.414 22.3784 105.344 24.6703 107.322 27.6791L126.539 60.3233C123.225 60.5956 119.468 59.5809 116.1 59.4226L73.7341 58.9266C72.8161 58.9271 71.6959 58.7882 70.8161 59.0675Z"/>
	<path fill="#FCBF49" transform="scale(0.126953 0.126953)" d="M393.597 22.3944L398.468 22.3107C398.017 22.8332 397.55 23.3449 397.178 23.9279L285.178 200.033L275.56 198.783C273.556 198.605 271.272 198.777 269.342 198.361C274.823 187.867 281.219 177.817 287.409 167.728L350.253 67.2866L374.366 30.9592C375.885 28.9194 378.088 26.6089 379.054 24.2729C379.839 22.3752 381.185 22.6395 383.007 22.5586L393.597 22.3944Z"/>
	<path fill="#FCBF49" transform="scale(0.126953 0.126953)" d="M253.661 196.601C245.194 197.081 236.419 198.314 228.266 200.679L127.041 34.1069C124.389 29.9997 121.805 25.8758 118.802 22.01C121.066 21.7696 137.875 22.3767 138.637 22.894C139.185 23.2663 139.726 24.2396 140.097 24.8054L169.391 73.4645C172.669 78.9597 175.72 84.959 179.575 90.0569C182.666 94.1431 185.641 93.477 189.755 90.8508C191.927 92.8469 195.093 97.569 195.989 100.439C189.264 104.551 191.037 111.278 194.423 116.81L205.67 133.831C208.588 138.335 220.069 159.743 226.065 158.574C227.851 159.849 228.799 161.943 229.97 163.75L248.962 190.474C250.679 192.536 252.33 194.258 253.661 196.601Z"/>
	<path fill="#F77F00" transform="scale(0.126953 0.126953)" d="M445.837 59.5196L446.122 59.7324C453.094 64.5316 458.792 54.9939 462.177 50.4492L473.058 36.0515C474.944 33.6301 476.787 31.0038 478.94 28.8154C490.078 48.3759 490.113 56.1316 479.087 74.3148L384.511 219.686C379.131 228.014 373.216 236.209 368.659 245.034C359.792 235.589 349.362 229.647 339.39 221.832C340.114 220.56 341.22 219.384 342.143 218.244L360.72 191L443.349 63.125C444.218 61.9696 445.293 60.8699 445.837 59.5196Z"/>
	<path fill="#434BFF" transform="scale(0.126953 0.126953)" d="M171.556 221.249C170.611 222.686 168.46 223.928 167.059 224.967C158.25 231.505 150.095 238.318 142.286 246.035L108.956 194.21L64.665 123.89L35.5181 79.6431C31.6173 73.498 27.1163 67.0977 25.2714 59.9726L24.8269 58.0773C23.4224 49.2639 30.3238 37.7591 35.1906 31.0813L55.707 55.545C59.945 59.6988 63.9141 60.8165 69.7377 60.7394C70.4351 62.4657 71.7705 63.9761 72.8487 65.4874L134.234 161.414L171.556 221.249Z"/>
	<path fill="#003049" transform="scale(0.126953 0.126953)" d="M195.989 100.439C200.765 99.3495 205.718 108.993 207.756 112.131L219.01 130.187C223.617 137.394 229.516 144.124 231.44 152.615C230.27 155.308 228.849 157.365 226.065 158.574C220.069 159.743 208.588 138.335 205.67 133.831L194.423 116.81C191.037 111.278 189.264 104.551 195.989 100.439Z"/>
	<path fill="#F77F00" transform="scale(0.126953 0.126953)" d="M193.354 224.651C220.098 213.278 248.795 208.587 277.625 213.074C345.135 223.58 399.7 281.527 399.513 350.801C399.413 388.173 385.412 424.245 359.888 451.527C340.225 473.876 313.145 487.483 284.439 493.997L274.558 495.86C264.889 497.195 252.686 498.304 242.999 496.635L229.375 494.498C185.363 486.091 146.971 456.884 127.78 416.142C104.938 367.648 108.233 309.292 141.614 266.243C154.258 249.938 174.869 233.307 193.354 224.651Z"/>
	<path fill="#003049" transform="scale(0.126953 0.126953)" d="M173.372 255.375C176.547 255.36 180.699 258.803 180.758 262.073C180.833 266.282 172.475 274.357 169.625 277.58L164.323 283.76C163.23 284.96 162.091 286.386 160.412 286.461C147.941 281.732 152.672 277.355 158.974 269.792C162.666 265.363 167.91 257.588 173.372 255.375Z"/>
	<path fill="#003049" transform="scale(0.126953 0.126953)" d="M159.221 417.125L160.001 417.016C163.012 418.665 165.324 421.972 167.61 424.509L174.793 432.731C177.355 435.683 179.96 438.575 181.67 442.125C180.54 444.956 177.649 448.622 174.375 448.766C167.095 444.804 155.219 432.996 151.831 425.041C152.827 422.148 156.789 418.812 159.221 417.125Z"/>
	<path fill="#003049" transform="scale(0.126953 0.126953)" d="M137.632 361.297C144.856 362.764 143.912 373.864 145.269 379.524C146.831 386.04 153.692 397.26 141.856 398.897C133.73 397.33 132.571 383.755 131.311 377.143C129.954 370.015 128.691 363.672 137.632 361.297Z"/>
	<path fill="#003049" transform="scale(0.126953 0.126953)" d="M141.84 302.021C148.828 302.164 148.643 308.81 147.536 313.75L144.597 325.564C143.395 330.891 143.667 338.902 136.875 340.508C124.3 341.029 133.463 313.38 136.073 307.806C137.385 305.002 138.806 303.12 141.84 302.021Z"/>
	<path fill="#003049" transform="scale(0.126953 0.126953)" d="M304.074 457.551C309.349 457.144 311.667 465.502 309.178 468.18C303.411 474.384 283.832 477.948 275.486 478.017L275.278 477.967C267.962 476.305 267.171 469.183 274.202 466.103C279.154 463.933 285.113 462.963 290.329 461.541C294.921 460.288 299.441 458.613 304.074 457.551Z"/>
	<path fill="#003049" transform="scale(0.126953 0.126953)" d="M204.237 456.288L204.544 456.281C209.469 456.081 214.179 458.564 218.695 460.248L229.74 464.018C233.864 465.326 241.075 465.408 242.616 469.91C243.769 473.278 240.672 477.295 237.52 478.181C229.017 479.814 202.909 470.711 198.827 464.248C199.461 460.75 200.651 457.748 204.237 456.288Z"/>
	<path fill="#FCBF49" transform="scale(0.126953 0.126953)" d="M193.354 224.651C220.098 213.278 248.795 208.587 277.625 213.074C345.135 223.58 399.7 281.527 399.513 350.801C399.413 388.173 385.412 424.245 359.888 451.527C358.867 451.009 357.995 450.277 357.014 449.702C353.375 447.569 347.408 447.902 345.581 445.063C341.67 448.771 334.123 454.986 331.233 446.517L330.812 444.957C330.353 445.7 330.04 446.508 329.7 447.31C319.369 448.181 315.602 449.146 305.425 447.351C306.951 444.413 309.241 441.826 311.297 439.248L317.848 430.944C339.196 404.739 356.366 381.233 350.692 344.852C348.938 333.606 345.962 322.332 341.115 312.007C332.022 292.638 311.471 272.463 290.876 264.987C290.103 270.442 290.526 276.325 290.531 281.829L290.492 409.495C303.66 408.305 305.517 424.223 292.342 423.628L231.051 423.517C226.215 423.61 216.875 424.667 215.398 418.276C214.469 414.257 217.912 410.097 221.749 409.393C220.572 404.199 220.835 398.742 220.822 393.459L220.813 375.293C220.818 362.285 219.827 345.058 221.735 332.315C219.823 331.841 218.439 330.918 216.951 329.692C214.772 327.256 213.846 324.68 215.048 321.465L215.427 320.944C216.902 318.913 218.478 317.724 220.607 316.414C220.381 314.799 221.664 314.164 221.589 312.877C221.132 304.942 221.083 300.404 221.382 292.623L221.449 280.086C221.466 274.649 221.54 269.209 220.999 263.791L212.277 268.309C209.367 269.445 206.303 271.711 203.25 272.071C201.366 272.293 194.83 273.718 193.471 274.288C191.865 272.352 192.137 271.711 192.513 269.331L193.244 264C195.225 247.308 194.85 241.275 193.354 224.651Z"/>
	<path fill="#003049" transform="scale(0.126953 0.126953)" d="M220.607 316.414L222.998 315.468C230.643 320.781 229.848 331.223 221.973 332.3L221.735 332.315C219.823 331.841 218.439 330.918 216.951 329.692C214.772 327.256 213.846 324.68 215.048 321.465L215.427 320.944C216.902 318.913 218.478 317.724 220.607 316.414Z"/>
	<path fill="#003049" transform="scale(0.126953 0.126953)" d="M374.646 363.285C387.581 362.714 380.794 380.952 379.022 387.75C377.881 392.127 377.933 396.843 373.004 398.363C360.304 397.994 365.389 386.574 367.115 378.875L368.871 370.352C369.773 366.544 370.506 364.446 374.646 363.285Z"/>
	<path fill="#003049" transform="scale(0.126953 0.126953)" d="M370.149 304.079C379.561 304.871 383.019 335.754 382.237 337.25C381.2 339.232 378.454 340.062 376.455 340.606C368.118 341.175 367.054 326.089 365.511 319.395C364.034 312.987 361.369 305.696 370.149 304.079Z"/>
	<path fill="#003049" transform="scale(0.126953 0.126953)" d="M330.812 444.957C330.888 443.966 330.926 442.9 331.231 441.95C332.216 438.882 348.728 420.143 351.626 418.813C355.697 416.946 358.876 420.654 360.441 424.01C359.908 430.713 349.901 440.482 345.581 445.063C341.67 448.771 334.123 454.986 331.233 446.517L330.812 444.957Z"/>
	<path fill="#003049" transform="scale(0.126953 0.126953)" d="M333.589 255.289L335.375 255.205C340.118 255.456 359.343 274.948 358.335 280.151L358.221 280.48C357.315 283.266 355.812 285.164 352.833 285.982C349.746 286.537 348.091 284.969 346.006 282.9L333.71 271.038C327.96 265.48 325.259 260.035 333.589 255.289Z"/>
	<path fill="#003049" transform="scale(0.126953 0.126953)" d="M277.357 228.835L277.438 228.835C283.083 229.05 303.663 235.522 307.236 239.624C311.133 244.097 308.605 251.119 300.814 249.606L278.792 243.735C274.304 242.457 265.072 238.406 269.789 232.305C271.671 229.872 274.477 229.206 277.357 228.835Z"/>
	<path fill="#003049" transform="scale(0.126953 0.126953)" d="M236.835 229.095C248.088 228.42 245.897 240.484 240.441 242.427C236.605 243.792 232.232 244.155 228.25 244.998L211.861 248.722C202.692 249.468 199.868 240.645 208.004 236.955C214.65 233.941 229.818 229.977 236.835 229.095Z"/>
	<path fill="#003049" transform="scale(0.126953 0.126953)" d="M221.749 409.393L250.148 409.663C249.744 404.792 249.82 399.866 249.808 394.982L249.314 335.081C249.309 331.855 249.523 310.5 249.362 310.23L249.155 310.52C246.266 314.491 236.353 320.723 232.052 322.138C229.284 319.473 228.428 315.824 227.107 312.334C230.937 307.728 236.378 304.169 240.855 300.17C245.264 296.231 249.319 291.737 253.876 288.001C257.837 284.754 262.256 288.45 262.241 292.922L262.029 409.828L290.49 409.574C303.66 408.305 305.517 424.223 292.342 423.628L231.051 423.517C226.215 423.61 216.875 424.667 215.398 418.276C214.469 414.257 217.912 410.097 221.749 409.393Z"/>
</svg>
